<?xml version="1.0" encoding="utf-8"?>
<!-- Generator: Adobe Illustrator 23.0.3, SVG Export Plug-In . SVG Version: 6.00 Build 0)  -->
<svg version="1.1" id="logo-h" xmlns="http://www.w3.org/2000/svg" xmlns:xlink="http://www.w3.org/1999/xlink" x="0px" y="0px"
	 viewBox="0 0 187.7 160.2" enable-background="new 0 0 187.7 160.2" xml:space="preserve">
<g>
	<g>
		<g>
			<defs>
				<path id="SVGID_1_" d="M180.8,118.9c0.9,1.4,1.3,3.3,1.3,5.7c0,4.5-1.1,8.1-3.3,10.8c-11.5,14-23.7,21-36.6,21
					c-11.2,0-20.2-4.3-26.9-13s-10.1-21.1-10.1-37.3c0-3.9,0.2-7.9,0.5-11.8c-7.6,1.4-16,2.4-25,3.1c-6,0.5-10.1,0.8-12.3,0.9
					c-2.3,11.8-5.6,26.3-9.7,43.4c-2.4,10.1-7.1,15.1-13.9,15.1c-7.4,0-11.1-3.4-11.1-10.1c0-1.5,0.3-3.6,0.9-6.2
					c3.9-15.9,7.1-29.3,9.4-40.3l-8.3,0.3c-3.8,0-6.6-0.7-8.3-2c-1.7-1.3-2.6-3.5-2.6-6.5c0-3.8,1.1-6.6,3.3-8.4s5.8-2.8,10.9-3
					l9.2-0.3c3-16.3,4.5-28.8,4.5-37.3c0-5.4-0.8-9.1-2.4-11.1c-1.6-2-3.8-3-6.4-3c-8.1,0-17.2,6.8-27.4,20.3c-1.5,2-3.2,3-5,3
					c-1.6,0-3-0.8-4.2-2.3s-1.7-3.4-1.7-5.7c0-3.6,1.4-7.4,4.3-11.5c5.1-7.1,11.5-12.9,19.3-17.4c7.8-4.6,15.6-6.9,23.6-6.9
					c7.5,0,13.3,2.6,17.4,7.7s6.2,13.2,6.2,24c0,9.6-1.4,22.6-4.2,39.1l17-0.9c7.3-0.3,13.5-0.9,18.7-1.7
					c2.1-12.7,5.3-24.6,9.5-35.8c4.3-11.1,9.6-20.1,16-27.1c6.4-6.9,13.5-10.4,21.3-10.4c5.8,0,10.4,2.3,13.7,6.9
					c3.4,4.6,5,10.6,5,18c0,28.7-14.6,48.6-43.9,59.7c-0.3,4.6-0.5,9.4-0.5,14.4c0,12.1,1.5,20.8,4.5,25.9c3,5.1,7.2,7.6,12.7,7.6
					c4.7,0,9.1-1.2,13-3.7s8.4-6.7,13.4-12.8c1.4-1.6,3-2.4,4.7-2.4C178.8,116.8,180,117.5,180.8,118.9z M145.8,25.3
					c-2.8,4.6-5.5,10.9-8.1,18.9c-2.5,8-4.6,16.7-6.1,26.2c9.3-3.8,16.1-9.3,20.5-16.3c4.4-7.1,6.6-16.1,6.6-27.2
					c0-2.7-0.5-4.7-1.4-6.2s-2.1-2.3-3.5-2.3C151.3,18.4,148.6,20.7,145.8,25.3z"/>
			</defs>
			<clipPath id="SVGID_2_">
				<use xlink:href="#SVGID_1_"  overflow="visible"/>
			</clipPath>
			<path id="h-path1" clip-path="url(#SVGID_2_)" fill="none" stroke="#DEDEDE" stroke-width="30" stroke-miterlimit="10" d="
				M41,160l3.4-10.2C56.8,109.9,65.7,35.7,65.7,35.7C56.8-13.1,9.9,45.9,9.9,45.9L0.8,58.4"/>
		</g>
	</g>
</g>
<g>
	<g>
		<g>
			<defs>
				<path id="SVGID_3_" d="M180.8,118.9c0.9,1.4,1.3,3.3,1.3,5.7c0,4.5-1.1,8.1-3.3,10.8c-11.5,14-23.7,21-36.6,21
					c-11.2,0-20.2-4.3-26.9-13s-10.1-21.1-10.1-37.3c0-3.9,0.2-7.9,0.5-11.8c-7.6,1.4-16,2.4-25,3.1c-6,0.5-10.1,0.8-12.3,0.9
					c-2.3,11.8-5.6,26.3-9.7,43.4c-2.4,10.1-7.1,15.1-13.9,15.1c-7.4,0-11.1-3.4-11.1-10.1c0-1.5,0.3-3.6,0.9-6.2
					c3.9-15.9,7.1-29.3,9.4-40.3l-8.3,0.3c-3.8,0-6.6-0.7-8.3-2c-1.7-1.3-2.6-3.5-2.6-6.5c0-3.8,1.1-6.6,3.3-8.4s5.8-2.8,10.9-3
					l9.2-0.3c3-16.3,4.5-28.8,4.5-37.3c0-5.4-0.8-9.1-2.4-11.1c-1.6-2-3.8-3-6.4-3c-8.1,0-17.2,6.8-27.4,20.3c-1.5,2-3.2,3-5,3
					c-1.6,0-3-0.8-4.2-2.3s-1.7-3.4-1.7-5.7c0-3.6,1.4-7.4,4.3-11.5c5.1-7.1,11.5-12.9,19.3-17.4c7.8-4.6,15.6-6.9,23.6-6.9
					c7.5,0,13.3,2.6,17.4,7.7s6.2,13.2,6.2,24c0,9.6-1.4,22.6-4.2,39.1l17-0.9c7.3-0.3,13.5-0.9,18.7-1.7
					c2.1-12.7,5.3-24.6,9.5-35.8c4.3-11.1,9.6-20.1,16-27.1c6.4-6.9,13.5-10.4,21.3-10.4c5.8,0,10.4,2.3,13.7,6.9
					c3.4,4.6,5,10.6,5,18c0,28.7-14.6,48.6-43.9,59.7c-0.3,4.6-0.5,9.4-0.5,14.4c0,12.1,1.5,20.8,4.5,25.9c3,5.1,7.2,7.6,12.7,7.6
					c4.7,0,9.1-1.2,13-3.7s8.4-6.7,13.4-12.8c1.4-1.6,3-2.4,4.7-2.4C178.8,116.8,180,117.5,180.8,118.9z M145.8,25.3
					c-2.8,4.6-5.5,10.9-8.1,18.9c-2.5,8-4.6,16.7-6.1,26.2c9.3-3.8,16.1-9.3,20.5-16.3c4.4-7.1,6.6-16.1,6.6-27.2
					c0-2.7-0.5-4.7-1.4-6.2s-2.1-2.3-3.5-2.3C151.3,18.4,148.6,20.7,145.8,25.3z"/>
			</defs>
			<clipPath id="SVGID_4_">
				<use xlink:href="#SVGID_3_"  overflow="visible"/>
			</clipPath>
			<path id="h-path2" clip-path="url(#SVGID_4_)" fill="none" stroke="#DEDEDE" stroke-width="30" stroke-miterlimit="10" d="
				M13.1,92.6l14.1-1.4l7.1-0.7l88.7-7.3c0,0,63.7-23.4,35.6-72.2c0,0-25.1-10-35.1,53.1S117,172.8,173.1,131l7.4-11.5l1.5-4.3"/>
		</g>
	</g>
</g>
</svg>
