<?xml version="1.0" encoding="utf-8"?>
<!-- Generator: Adobe Illustrator 23.0.3, SVG Export Plug-In . SVG Version: 6.00 Build 0)  -->
<svg version="1.1" id="Calque_1" xmlns="http://www.w3.org/2000/svg" xmlns:xlink="http://www.w3.org/1999/xlink" x="0px" y="0px"
	 viewBox="0 0 1920 1080" enable-background="new 0 0 1920 1080" xml:space="preserve">
<g id="Text" enable-background="new    ">
	<g id="y">
		<defs>
			<path id="SVGID_1_" d="M1431.6,545.7c0.9,1.4,1.3,3.3,1.3,5.5c0,2.7-0.4,4.7-1.2,6.2c-0.8,1.5-2.1,2.8-3.8,4l-33.3,22.4
				c-4.4,24-10.2,42.8-17.3,56.5c-7.1,13.7-16.2,20.6-27.2,20.6c-5.9,0-10.7-1.8-14.4-5.5c-3.7-3.6-5.6-8.4-5.6-14.3
				c0-5.4,1.2-11,3.7-16.7c2.5-5.7,7.1-12.2,13.9-19.5c6.8-7.3,16.3-15.8,28.7-25.3l0.5-4c0.8-4.3,1.7-10.4,2.8-18.4
				c-2.3,8.3-5.6,14.7-9.7,19c-4.2,4.3-8.6,6.5-13.2,6.5c-5.2,0-9.5-2.4-12.8-7.2c-3.3-4.8-4.9-10.8-4.9-18c0-8.7,0.6-16.6,1.7-23.9
				c1.2-7.2,3.1-14.9,5.7-23c1.2-3.5,2.8-6,4.9-7.5c2.1-1.5,5.4-2.3,9.9-2.3c2.5,0,4.3,0.4,5.3,1.2c1,0.8,1.5,2,1.5,3.6
				c0,0.9-0.6,4.1-1.9,9.4c-1.2,4.3-2.1,8.2-2.8,11.6c-0.9,4.7-1.7,9.3-2.4,13.6c-0.7,4.3-1,7.9-1,10.7c0,4.4,1.2,6.6,3.6,6.6
				c1.7,0,3.9-1.7,6.5-5.2c2.6-3.5,5.4-8.7,8.3-15.8c3-7.1,5.8-15.7,8.6-26c0.9-3.5,2.3-6,4.3-7.5c1.9-1.5,4.8-2.3,8.6-2.3
				c2.7,0,4.5,0.3,5.6,1c1,0.7,1.6,1.9,1.6,3.5c0,2.9-1.5,12.8-4.5,29.9l-4.5,27.9c8.9-6.7,17.6-12.8,26-18.4c1.5-0.9,2.8-1.4,4-1.4
				C1429.6,543.6,1430.8,544.3,1431.6,545.7z M1361.8,634c3.6-6.7,7.2-17.9,10.8-33.5c-8.9,7.5-15.4,14.4-19.4,20.6
				c-4,6.2-6,11.6-6,16.2c0,2,0.4,3.6,1.1,4.9c0.8,1.3,2,1.9,3.7,1.9C1355,644,1358.2,640.7,1361.8,634z"/>
		</defs>
		<clipPath id="SVGID_2_">
			<use xlink:href="#SVGID_1_"  overflow="visible"/>
		</clipPath>
		<path id="y-path" clip-path="url(#SVGID_2_)" fill="none" stroke="#DEDEDE" stroke-width="30" stroke-miterlimit="10" d="
			M1359.9,496.9l-3.1,13.2c0,0-12,58.7-1.2,62.2c10.8,3.5,26-21.3,43.8-71.3c0,0-18,151.8-46.1,152.3c-28.1,0.5-10.7-34.2-7.8-37.5
			s41.5-39.6,81.1-63.9l17.9-10"/>
	</g>
	<g id="e2">
		<defs>
			<path id="SVGID_3_" d="M1352,545.3c0.9,1.4,1.3,3.3,1.3,5.7c0,4.6-1.1,8.2-3.3,10.8c-4.3,5.2-10.3,10-18.1,14.4
				c-7.8,4.4-16.2,6.6-25.1,6.6c-12.1,0-21.6-3.3-28.3-9.9c-6.7-6.6-10.1-15.6-10.1-27.1c0-8,1.7-15.4,5-22.3
				c3.4-6.9,8-12.4,14-16.4c6-4,12.7-6.1,20.2-6.1c6.7,0,12.1,2,16.1,6c4,4,6.1,9.4,6.1,16.2c0,8-2.9,14.8-8.6,20.6
				s-15.4,10.3-29.1,13.6c2.9,5.3,8.4,8,16.5,8c5.2,0,11.1-1.8,17.8-5.5c6.7-3.6,12.4-8.4,17.3-14.3c1.4-1.6,3-2.4,4.7-2.4
				C1349.9,543.2,1351.1,543.9,1352,545.3z M1293.8,525.5c-3,5-4.4,11-4.4,18.1v0.3c6.8-1.6,12.2-4,16.1-7.3c3.9-3.2,5.9-7,5.9-11.3
				c0-2.2-0.6-4-1.8-5.3c-1.2-1.3-2.9-2-4.9-2C1300.4,518,1296.8,520.5,1293.8,525.5z"/>
		</defs>
		<clipPath id="SVGID_4_">
			<use xlink:href="#SVGID_3_"  overflow="visible"/>
		</clipPath>
		<path id="e2-path" clip-path="url(#SVGID_4_)" fill="none" stroke="#DEDEDE" stroke-width="30" stroke-miterlimit="10" d="
			M1283.4,551.9l8.5-2c0,0,28.3-5.7,27.7-27.3c-0.6-21.6-25.9-10.9-25.9-10.9s-16.2,14.8-15.4,26.9c0.8,12.1-1.2,30.5,22.1,37.6
			c23.2,7.1,45.1-23.5,45.1-23.5l6.4-10.9"/>
	</g>
	<g id="c">
		<defs>
			<path id="SVGID_5_" d="M1213.8,573.1c-6.3-6.4-9.5-14.9-9.5-25.4c0-9.4,1.8-17.6,5.6-24.6c3.7-7.1,8.5-12.5,14.4-16.3
				c5.9-3.8,12.1-5.7,18.6-5.7c6.4,0,11.3,1.9,14.8,5.6c3.5,3.8,5.3,8.6,5.3,14.5c0,4.9-1.1,9-3.2,12.3c-2.1,3.4-4.9,5-8.4,5
				c-2.2,0-4-0.5-5.3-1.6c-1.3-1-2-2.5-2-4.3c0-0.8,0.1-1.7,0.3-2.8c0.2-1,0.4-1.8,0.5-2.3c0.6-1.7,0.9-3.4,0.9-4.9
				c0-1.5-0.4-2.7-1.1-3.5c-0.8-0.8-1.8-1.2-3.2-1.2c-2.7,0-5.2,1.2-7.5,3.6c-2.3,2.4-4.2,5.6-5.6,9.6c-1.4,4.1-2.1,8.5-2.1,13.4
				c0,13.4,5.8,20.1,17.5,20.1c4.7,0,9.9-1.6,15.4-4.8c5.5-3.2,10.9-8,16.2-14.3c1.4-1.6,3-2.4,4.7-2.4c1.5,0,2.7,0.7,3.6,2.1
				c0.9,1.4,1.3,3.3,1.3,5.7c0,4.4-1.1,8-3.3,10.8c-5.4,6.7-11.9,11.9-19.5,15.5c-7.6,3.6-14.9,5.5-22,5.5
				C1229,582.8,1220.1,579.6,1213.8,573.1z"/>
		</defs>
		<clipPath id="SVGID_6_">
			<use xlink:href="#SVGID_5_"  overflow="visible"/>
		</clipPath>
		<path id="c-path" clip-path="url(#SVGID_6_)" fill="none" stroke="#DEDEDE" stroke-width="30" stroke-miterlimit="10" d="
			M1249,540l3.6-9c0,0,9.5-15.7-7.1-22.6c-16.6-6.9-31.1,25.2-30.7,30.1c0.4,4.9,1.8,43.1,28.9,37.2c27.1-5.9,34.6-23.1,34.6-23.1
			l6.7-12.6"/>
	</g>
	<g id="l">
		<defs>
			<path id="SVGID_7_" d="M1219.9,545.3c0.9,1.4,1.3,3.3,1.3,5.7c0,4.6-1.1,8.2-3.3,10.8c-5,6.1-10.4,11.2-16.2,15.1
				c-5.8,3.9-12.5,5.9-19.9,5.9c-10.2,0-17.7-4.6-22.7-13.9c-4.9-9.3-7.4-21.2-7.4-35.9c0-14.1,1.8-30.2,5.5-48.3
				c3.6-18.1,9-33.6,16.1-46.5c7.1-13,15.6-19.4,25.4-19.4c5.6,0,9.9,2.6,13.1,7.7c3.2,5.1,4.8,12.5,4.8,22.1
				c0,13.8-3.8,29.7-11.5,47.9c-7.6,18.2-18,36.2-31.1,54c0.8,4.7,2.1,8.1,4,10.2c1.8,2,4.3,3,7.3,3c4.7,0,8.9-1.4,12.5-4.1
				c3.6-2.7,8.2-7.4,13.7-14c1.4-1.6,3-2.4,4.7-2.4C1217.8,543.2,1219,543.9,1219.9,545.3z M1186,450.4c-3.4,9.6-6.3,21.5-8.9,35.8
				c-2.5,14.2-3.9,27.9-4.2,41c8.2-13.5,14.8-27.1,19.6-40.7c4.9-13.6,7.3-26,7.3-37.2c0-8.8-1.6-13.2-4.9-13.2
				C1192.3,435.9,1189.3,440.8,1186,450.4z"/>
		</defs>
		<clipPath id="SVGID_8_">
			<use xlink:href="#SVGID_7_"  overflow="visible"/>
		</clipPath>
		<path id="l-path" clip-path="url(#SVGID_8_)" fill="none" stroke="#DEDEDE" stroke-width="30" stroke-miterlimit="10" d="
			M1168.6,545.5l7.2-8.9c0,0,28-48,31-65.8c3-17.8,2.7-28.9,0-36.7c-2.7-7.8-14-14-25.9,5.4c-11.9,19.4-20.2,87.6-18.3,95.7
			c1.9,8.1,2.4,40.4,20.8,39.5c18.3-0.9,31.6-21.7,31.6-21.7l7.4-13"/>
	</g>
	<g id="e1">
		<defs>
			<path id="SVGID_9_" d="M1163.3,545.3c0.9,1.4,1.3,3.3,1.3,5.7c0,4.6-1.1,8.2-3.3,10.8c-4.3,5.2-10.3,10-18.1,14.4
				c-7.8,4.4-16.2,6.6-25.1,6.6c-12.1,0-21.6-3.3-28.3-9.9c-6.7-6.6-10.1-15.6-10.1-27.1c0-8,1.7-15.4,5-22.3
				c3.4-6.9,8-12.4,14-16.4c6-4,12.7-6.1,20.2-6.1c6.7,0,12.1,2,16.1,6c4,4,6.1,9.4,6.1,16.2c0,8-2.9,14.8-8.6,20.6
				s-15.4,10.3-29.1,13.6c2.9,5.3,8.4,8,16.5,8c5.2,0,11.1-1.8,17.8-5.5c6.7-3.6,12.4-8.4,17.3-14.3c1.4-1.6,3-2.4,4.7-2.4
				C1161.3,543.2,1162.5,543.9,1163.3,545.3z M1105.2,525.5c-3,5-4.4,11-4.4,18.1v0.3c6.8-1.6,12.2-4,16.1-7.3
				c3.9-3.2,5.9-7,5.9-11.3c0-2.2-0.6-4-1.8-5.3c-1.2-1.3-2.9-2-4.9-2C1111.7,518,1108.1,520.5,1105.2,525.5z"/>
		</defs>
		<clipPath id="SVGID_10_">
			<use xlink:href="#SVGID_9_"  overflow="visible"/>
		</clipPath>
		<path id="e1-path" clip-path="url(#SVGID_10_)" fill="none" stroke="#DEDEDE" stroke-width="30" stroke-miterlimit="10" d="
			M1162.3,540l-3.1,10.2c0,0-9.5,21.9-29.4,23.5c-19.9,1.6-31.4,5.2-39-23.3c-7.6-28.5,15.4-35.6,22.2-39.2
			c6.9-3.6,17.4-4.4,19.3,12.3c1.9,16.7-28.4,27-28.4,27l-6.2,1.8"/>
	</g>
	<g id="d">
		<defs>
			<path id="SVGID_11_" d="M971.7,581c-4.6-0.6-7.8-1.8-9.5-3.6c-1.7-1.8-2.5-4.9-2.3-9c0.8-11.5,2.7-25.6,5.7-42.4
				c3-16.8,6.7-33.1,10.9-48.7c0.8-2.9,2.4-4.9,4.9-6.1c2.4-1.2,5.6-1.7,9.5-1.7c7.1,0,10.6,2,10.6,5.9c0,1.6-0.3,3.5-1,5.6
				c-3,9.3-6,21.7-9,37.2c-3,15.6-5.2,30.4-6.4,44.5c3.5,0.3,7.4,0.5,11.8,0.5c20.2,0,35.4-6.1,45.4-18.4c10-12.3,15-28.6,15-49.1
				c0-13.8-3.9-24.4-11.8-31.9c-7.9-7.5-19-11.3-33.3-11.3c-9.3,0-18.4,1.4-27.5,4.3c-9.1,2.9-17.3,6.7-24.6,11.5
				c-1.5,1-3.1,1.6-4.9,1.6c-2,0-3.5-0.8-4.7-2.5c-1.2-1.7-1.7-3.7-1.7-6.2c0-2.8,0.5-5.1,1.4-6.9c0.9-1.8,2.5-3.4,4.7-4.9
				c8-5.4,17.4-9.6,28.1-12.4c10.8-2.8,21.1-4.3,31.1-4.3c14.1,0,26.3,2.5,36.6,7.4c10.3,4.9,18.2,12.1,23.8,21.6
				c5.6,9.5,8.3,20.9,8.3,34.4c0,17.5-3.5,32.7-10.4,45.7c-6.9,13-17.1,23.1-30.4,30.3c-13.3,7.2-29.2,10.8-47.6,10.8
				C987.7,582.8,980.1,582.2,971.7,581z"/>
		</defs>
		<clipPath id="SVGID_12_">
			<use xlink:href="#SVGID_11_"  overflow="visible"/>
		</clipPath>
		<path id="d-path2" clip-path="url(#SVGID_12_)" fill="none" stroke="#DEDEDE" stroke-width="30" stroke-miterlimit="10" d="
			M990.6,465.6l-2.6,11.9c0,0-18,75.4-15.4,91.8l-0.3,15.6"/>
		<path id="d-path1" clip-path="url(#SVGID_12_)" fill="none" stroke="#DEDEDE" stroke-width="30" stroke-miterlimit="10" d="
			M942,468.2l15.6-9.9c0,0,101.1-53.8,113.3,36.8c0,0,7.7,58.4-68,79.1c0,0-17.1-0.4-30.6-3.6l-16.7-2.2"/>
	</g>
	<g id="o">
		<defs>
			<path id="SVGID_13_" d="M905,530.9c0.8,1.5,1.2,3.4,1.2,5.7c0,5.6-1.7,8.9-5,9.9c-6.9,2.4-14.6,3.8-22.9,4.2
				c-2.2,9.7-6.5,17.5-13,23.3c-6.5,5.8-13.8,8.8-22,8.8c-6.9,0-12.9-1.7-17.8-5c-4.9-3.4-8.7-7.8-11.2-13.4
				c-2.5-5.6-3.8-11.6-3.8-18.1c0-8.8,1.7-16.6,5-23.5c3.4-6.9,8-12.3,13.9-16.1c5.9-3.9,12.4-5.8,19.6-5.8c8.8,0,15.9,3,21.3,9.1
				c5.4,6.1,8.5,13.6,9.5,22.5c5.4-0.3,11.9-1.5,19.4-3.5c0.9-0.2,1.7-0.3,2.4-0.3C903,528.6,904.2,529.4,905,530.9z M854.2,559.9
				c2.7-3,4.5-7.3,5.5-13c-3.6-2.4-6.3-5.6-8.2-9.5c-1.9-3.9-2.9-8.1-2.9-12.5c0-1.8,0.2-3.7,0.5-5.6h-0.9c-4.6,0-8.5,2.2-11.5,6.7
				c-3.1,4.5-4.6,10.7-4.6,18.8c0,6.4,1.2,11.2,3.7,14.6c2.5,3.4,5.4,5,8.8,5C848.3,564.4,851.5,562.9,854.2,559.9z"/>
		</defs>
		<clipPath id="SVGID_14_">
			<use xlink:href="#SVGID_13_"  overflow="visible"/>
		</clipPath>
		<path id="o-path" clip-path="url(#SVGID_14_)" fill="none" stroke="#DEDEDE" stroke-width="30" stroke-miterlimit="10" d="
			M866.8,518.7c0,0-25-26.5-41.5,6.7s10.7,52,19,50.6s24.5-14.3,26.2-29.3c1.6-15,1.6-25.1-7.3-28.4s-8.9,7.4-8.9,7.4
			s6.9,25.9,45.8,13.3l11.7-3.5"/>
	</g>
	<g id="g">
		<defs>
			<path id="SVGID_15_" d="M822.3,545.7c0.9,1.4,1.3,3.3,1.3,5.5c0,2.7-0.4,4.7-1.2,6.2c-0.8,1.5-2.1,2.8-3.8,4
				c-10,6.7-17.2,11.7-21.9,14.9l-11.1,7.5c-4.4,24-10.2,42.8-17.3,56.5c-7.1,13.7-16.2,20.6-27.2,20.6c-5.9,0-10.7-1.8-14.4-5.5
				c-3.7-3.6-5.6-8.4-5.6-14.3c0-8.2,3.2-17,9.7-26.5c6.5-9.4,18.6-21,36.4-34.8l1-6.8c-2,3.1-4.5,5.5-7.7,7.2
				c-3.2,1.7-6.3,2.5-9.5,2.5c-7.2,0-12.9-2.6-17.2-7.8c-4.3-5.2-6.4-12-6.4-20.5c0-9.3,2.1-18,6.4-26.3c4.3-8.3,10-14.9,17.1-20
				c7.1-5,14.7-7.5,22.6-7.5c2.5,0,4.3,0.5,5.1,1.5c0.9,1,1.6,2.8,2.2,5.3c2.2-0.5,4.7-0.7,7.6-0.7c2.9,0,4.9,0.4,6.2,1.3
				c1.2,0.9,1.8,2.6,1.8,5.1c0,1.4-0.1,2.5-0.2,3.3c-0.5,3.6-1.9,12.7-4.3,27.2c-0.5,2.8-1,5.8-1.5,9.1c-0.5,3.3-1.1,6.8-1.6,10.5
				c8.9-6.9,17.5-13.1,25.7-18.4c1.5-0.9,2.8-1.4,4-1.4C820.2,543.6,821.4,544.3,822.3,545.7z M752.9,633.6
				c3.6-6.9,7.1-18,10.5-33.2c-8.9,7.6-15.3,14.5-19.3,20.7c-3.9,6.1-5.9,11.5-5.9,16.1c0,2,0.4,3.6,1.1,4.9c0.8,1.3,2,1.9,3.7,1.9
				C745.9,644,749.2,640.6,752.9,633.6z M765.1,560.4c2.4-3.2,4.2-7.9,5.2-13.9l5.6-29.7c-4.7,0.1-9.1,1.9-13.2,5.5
				c-4.1,3.5-7.3,8.2-9.7,14c-2.4,5.8-3.6,11.9-3.6,18.4c0,3.6,0.7,6.2,2.2,8c1.4,1.7,3.4,2.6,6,2.6
				C760.1,565.3,762.7,563.6,765.1,560.4z"/>
		</defs>
		<clipPath id="SVGID_16_">
			<use xlink:href="#SVGID_15_"  overflow="visible"/>
		</clipPath>
		<path id="g-path2" clip-path="url(#SVGID_16_)" fill="none" stroke="#DEDEDE" stroke-width="30" stroke-miterlimit="10" d="
			M787.6,504l-13.9,4.3c0,0-26.1,9.1-31.1,26.3c-5.1,17.2-12.1,37.1,12.3,40.6c0,0,21-7.4,26.1-24.8c5.1-17.4,5.3-38.8,5.3-38.8
			l0.3-10.5"/>
		<path id="g-path1" clip-path="url(#SVGID_16_)" fill="none" stroke="#DEDEDE" stroke-width="30" stroke-miterlimit="10" d="
			M779.9,553.5c0,0-13.4,109.9-38.9,99.3s-5.6-34.2,19.4-59.9c25-25.7,47.3-32,56.4-39.5l10-7.5"/>
	</g>
	<g id="u">
		<defs>
			<path id="SVGID_17_" d="M654.6,575.6c-3.3-4.8-4.9-10.8-4.9-18c0-8.7,0.6-16.6,1.7-23.9c1.2-7.2,3.1-14.9,5.7-23
				c1.2-3.5,2.8-6,4.9-7.5c2.1-1.5,5.4-2.3,9.9-2.3c2.5,0,4.3,0.4,5.3,1.2c1,0.8,1.5,2,1.5,3.6c0,0.9-0.6,4.1-1.9,9.4
				c-1.2,4.3-2.1,8.2-2.8,11.6c-2.3,12.1-3.5,20.3-3.5,24.3c0,2.4,0.3,4.1,0.9,5.1c0.6,1,1.5,1.5,2.8,1.5c1.7,0,3.9-1.7,6.5-5.2
				c2.6-3.5,5.4-8.7,8.3-15.8c3-7.1,5.8-15.7,8.6-26c0.9-3.5,2.3-6,4.3-7.5c1.9-1.5,4.8-2.3,8.6-2.3c2.7,0,4.5,0.3,5.6,1
				c1,0.6,1.6,1.8,1.6,3.6c0,2.9-1.4,10.8-4.3,23.8c-3.2,14.8-4.9,24-4.9,27.4c0,2.2,0.5,3.9,1.4,5.1c0.9,1.2,2.1,1.8,3.6,1.8
				c2.3,0,5.1-1.4,8.2-4.3c3.2-2.8,7.4-7.4,12.8-13.8c1.4-1.6,3-2.4,4.7-2.4c1.5,0,2.7,0.7,3.6,2.1c0.9,1.4,1.3,3.3,1.3,5.7
				c0,4.6-1.1,8.2-3.3,10.8c-5,6.1-10.3,11.2-16.1,15.1c-5.7,3.9-12.2,5.9-19.5,5.9c-5.6,0-9.6-2.1-12.2-6.4
				c-2.6-4.3-3.9-10.3-3.9-18.1c-2,7.9-4.9,13.9-8.9,18.1c-3.9,4.2-8.2,6.3-12.7,6.3C662.2,582.8,657.9,580.4,654.6,575.6z"/>
		</defs>
		<clipPath id="SVGID_18_">
			<use xlink:href="#SVGID_17_"  overflow="visible"/>
		</clipPath>
		<path id="u-path" clip-path="url(#SVGID_18_)" fill="none" stroke="#DEDEDE" stroke-width="30" stroke-miterlimit="10" d="
			M671.1,496l-3.9,13.5c0,0-19.1,99.9,17.8,48.9c0,0,17.4-34.4,26.3-57.7c0,0-37.3,119.4,24.2,54.5l9.2-11.8"/>
	</g>
	<g id="h">
		<defs>
			<path id="SVGID_19_" d="M662.4,545.3c0.9,1.4,1.3,3.3,1.3,5.7c0,4.5-1.1,8.1-3.3,10.8c-11.5,14-23.7,21-36.6,21
				c-11.2,0-20.2-4.3-26.9-13c-6.7-8.7-10.1-21.1-10.1-37.3c0-3.9,0.2-7.9,0.5-11.8c-7.6,1.4-16,2.4-25,3.1
				c-6,0.5-10.1,0.8-12.3,0.9c-2.3,11.8-5.6,26.3-9.7,43.4c-2.4,10.1-7.1,15.1-13.9,15.1c-7.4,0-11.1-3.4-11.1-10.1
				c0-1.5,0.3-3.6,0.9-6.2c3.9-15.9,7.1-29.3,9.4-40.3l-8.3,0.3c-3.8,0-6.6-0.7-8.3-2c-1.7-1.3-2.6-3.5-2.6-6.5
				c0-3.8,1.1-6.6,3.3-8.4c2.2-1.8,5.8-2.8,10.9-3l9.2-0.3c3-16.3,4.5-28.8,4.5-37.3c0-5.4-0.8-9.1-2.4-11.1c-1.6-2-3.8-3-6.4-3
				c-8.1,0-17.2,6.8-27.4,20.3c-1.5,2-3.2,3-5,3c-1.6,0-3-0.8-4.2-2.3c-1.2-1.5-1.7-3.4-1.7-5.7c0-3.6,1.4-7.4,4.3-11.5
				c5.1-7.1,11.5-12.9,19.3-17.4c7.8-4.6,15.6-6.9,23.6-6.9c7.5,0,13.3,2.6,17.4,7.7c4.1,5.1,6.2,13.2,6.2,24
				c0,9.6-1.4,22.6-4.2,39.1l17-0.9c7.3-0.3,13.5-0.9,18.7-1.7c2.1-12.7,5.3-24.6,9.5-35.8c4.3-11.1,9.6-20.1,16-27.1
				c6.4-6.9,13.5-10.4,21.3-10.4c5.8,0,10.4,2.3,13.7,6.9c3.4,4.6,5,10.6,5,18c0,28.7-14.6,48.6-43.9,59.7
				c-0.3,4.6-0.5,9.4-0.5,14.4c0,12.1,1.5,20.8,4.5,25.9c3,5.1,7.2,7.6,12.7,7.6c4.7,0,9.1-1.2,13-3.7c3.9-2.5,8.4-6.7,13.4-12.8
				c1.4-1.6,3-2.4,4.7-2.4C660.4,543.2,661.6,543.9,662.4,545.3z M627.4,451.7c-2.8,4.6-5.5,10.9-8.1,18.9c-2.5,8-4.6,16.7-6.1,26.2
				c9.3-3.8,16.1-9.3,20.5-16.3c4.4-7.1,6.6-16.1,6.6-27.2c0-2.7-0.5-4.7-1.4-6.2c-0.9-1.5-2.1-2.3-3.5-2.3
				C632.9,444.8,630.2,447.1,627.4,451.7z"/>
		</defs>
		<clipPath id="SVGID_20_">
			<use xlink:href="#SVGID_19_"  overflow="visible"/>
		</clipPath>
		<path id="h-path1" clip-path="url(#SVGID_20_)" fill="none" stroke="#DEDEDE" stroke-width="30" stroke-miterlimit="10" d="
			M522.6,586.4l3.4-10.2c12.4-39.9,21.3-114.1,21.3-114.1c-8.9-48.8-55.8,10.2-55.8,10.2l-9.1,12.5"/>
		<path id="h-path2" clip-path="url(#SVGID_20_)" fill="none" stroke="#DEDEDE" stroke-width="30" stroke-miterlimit="10" d="
			M494.7,519l14.1-1.4l7.1-0.7l88.7-7.3c0,0,63.7-23.4,35.6-72.2c0,0-25.1-10-35.1,53.1s-6.5,108.7,49.6,66.9l7.4-11.5l1.5-4.3"/>
	</g>
</g>
</svg>
